<?xml version="1.0" encoding="UTF-8" standalone="no"?>
<!DOCTYPE svg PUBLIC "-//W3C//DTD SVG 1.1//EN" "http://www.w3.org/Graphics/SVG/1.1/DTD/svg11.dtd">
<!-- Created with Vectornator (http://vectornator.io/) -->
<svg height="100%" stroke-miterlimit="10" style="fill-rule:nonzero;clip-rule:evenodd;stroke-linecap:round;stroke-linejoin:round;" version="1.1" viewBox="0 0 272 262.8" width="100%" xml:space="preserve" xmlns="http://www.w3.org/2000/svg" xmlns:vectornator="http://vectornator.io" xmlns:xlink="http://www.w3.org/1999/xlink">
<defs/>
<g id="Untitled" vectornator:layerName="Untitled">
<g opacity="1">
<path d="M78.1 140C78.1553 108.078 104.078 82.2449 136 82.3002C167.922 82.3554 193.755 108.278 193.7 140.2C193.645 172.122 167.722 197.955 135.8 197.9C120.438 197.981 105.684 191.9 94.8397 181.018C83.9955 170.137 77.966 155.362 78.1 140Z" fill="#1075bb" fill-rule="nonzero" opacity="1" stroke="none"/>
<path d="M159 241.6C154.111 241.832 149.746 238.559 148.6 233.8C147.488 229.474 149.208 224.914 152.9 222.4C154.32 221.521 155.874 220.88 157.5 220.5C171.543 216.599 184.417 209.321 195 199.3C197 197.5 196.9 195.5 196.2 193.2C194.2 187 194.4 181 197.5 175.3C200.6 169.6 205.7 165.5 212.5 164.3C215.5 163.7 217.4 162.3 218 159.3C219.4 152.4 220.6 145.4 220.5 138.3C220.4 131.2 218.8 124.1 217.3 117.1C216.5 113.3 216.6 109.6 219.1 106.4C221.501 103.236 225.52 101.753 229.4 102.6C233.7 103.3 236.3 106.2 237.5 110.2C239.563 116.793 240.838 123.607 241.3 130.5C242.26 144.161 240.735 157.883 236.8 171C236.1 173.1 236.7 175 237.5 177C240.7 185.3 239.9 193.1 234.2 200C231.101 204.037 226.54 206.695 221.5 207.4C217.792 207.962 214.397 209.801 211.9 212.6C199.131 225.643 183.221 235.182 165.7 240.3C163.533 241.024 161.28 241.461 159 241.6Z" fill="#15a69d" fill-rule="nonzero" opacity="1" stroke="none"/>
<path d="M213.8 72.4C213.904 76.1698 211.792 79.6515 208.4 81.3C204.698 83.3937 200.089 82.9964 196.8 80.3C193.1 77.7 189.7 74.6 186.2 71.7C177.711 64.9052 167.852 60.027 157.3 57.4C154.797 56.5795 152.045 57.3264 150.3 59.3C141.818 67.6518 128.244 67.7845 119.6 59.6C117.888 57.8472 115.325 57.2259 113 58C101.048 61.2631 90.0002 67.2147 80.7 75.4C79.1 76.8 77.4 78.2 75.9 79.7C71 84.2 64.8 84.3 60.2 79.7C55.6 75.1 56.4 69.2 60.8 64.7C66.5653 58.8915 72.9732 53.7585 79.9 49.4C89.2 43.5 99.4 39.6 110 36.7C112.352 36.1553 114.355 34.6252 115.5 32.5C118.733 26.7491 124.346 22.7247 130.83 21.5089C137.314 20.2931 144.004 22.0108 149.1 26.2C150.788 27.6014 152.211 29.295 153.3 31.2C154.813 33.913 157.449 35.817 160.5 36.4C175.34 39.8145 189.24 46.474 201.2 55.9C204.622 58.6898 207.862 61.696 210.9 64.9C212.884 66.8772 213.938 69.6023 213.8 72.4Z" fill="#25a9e1" fill-rule="nonzero" opacity="1" stroke="none"/>
<path d="M44.4 103.4C47.5775 103.31 50.6152 104.707 52.6153 107.178C54.6153 109.649 55.3492 112.911 54.6 116C52.7723 122.996 51.7325 130.173 51.5 137.4C51.3427 145.154 52.2512 152.893 54.2 160.4C54.7488 162.373 56.314 163.9 58.3 164.4C70.9 168.2 77.3 179.8 73.7 192.4C73 194.8 74 196.4 75.5 197.9C83.6048 206.135 93.3018 212.634 104 217C107.4 218.4 111 219.5 114.6 220.7C119.428 222.168 122.506 226.89 121.9 231.9C121.4 236.8 117.6 240.5 112.4 241.4C110.735 241.519 109.065 241.28 107.5 240.7C89.0639 235.656 72.3602 225.661 59.2 211.8C57.0985 209.412 54.0808 208.031 50.9 208C34.9 207.3 24.9 188.9 33.1 175.1C34.5881 172.668 34.9178 169.7 34 167C28.6134 148.644 28.6829 129.117 34.2 110.8C35.8 105.5 38.9 103.4 44.4 103.4Z" fill="#1075bb" fill-rule="nonzero" opacity="1" stroke="none"/>
</g>
</g>
</svg>
