<?xml version="1.0" encoding="UTF-8" standalone="no"?>
<!DOCTYPE svg PUBLIC "-//W3C//DTD SVG 1.1//EN" "http://www.w3.org/Graphics/SVG/1.1/DTD/svg11.dtd">
<!-- Created with Vectornator (http://vectornator.io/) -->
<svg height="100%" stroke-miterlimit="10" style="fill-rule:nonzero;clip-rule:evenodd;stroke-linecap:round;stroke-linejoin:round;" version="1.1" viewBox="0 0 700 700" width="100%" xml:space="preserve" xmlns="http://www.w3.org/2000/svg" xmlns:vectornator="http://vectornator.io" xmlns:xlink="http://www.w3.org/1999/xlink">
<defs/>
<g id="Untitled" vectornator:layerName="Untitled">
<g opacity="1">
<path d="M349.44 96.582C362.413 96.582 372.991 84.977 372.991 70.641C372.991 56.305 362.409 45.039 349.44 45.039C336.467 45.039 325.889 56.644 325.889 70.98C325.885 85.316 336.467 96.582 349.44 96.582" fill="#2175bd" fill-rule="nonzero" opacity="1" stroke="none"/>
<path d="M395.18 131.74L395.18 113.306C395.18 99.654 384.258 96.579 370.602 96.579C370.602 96.579 361.727 103.407 349.438 103.407C337.833 103.407 328.274 96.579 328.274 96.579C314.962 96.579 303.696 99.9931 303.696 113.645L303.696 131.735C303.696 131.735 324.176 141.977 349.434 140.95C379.477 139.934 395.18 131.739 395.18 131.739L395.18 131.74Z" fill="#2175bd" fill-rule="nonzero" opacity="1" stroke="none"/>
<path d="M165.91 423.7C178.883 423.7 189.461 412.095 189.461 397.759C189.461 383.423 178.879 372.157 165.91 372.157C152.937 372.157 142.359 383.762 142.359 398.098C142.355 412.438 152.937 423.7 165.91 423.7" fill="#2175bd" fill-rule="nonzero" opacity="1" stroke="none"/>
<path d="M211.65 458.86L211.65 440.426C211.65 426.774 200.728 423.699 187.072 423.699C187.072 423.699 178.197 430.527 165.908 430.527C154.303 430.527 144.744 423.699 144.744 423.699C131.432 423.699 120.166 427.113 120.166 440.765L120.166 458.855C120.166 458.855 140.646 469.097 165.904 468.07C195.947 467.05 211.65 458.859 211.65 458.859L211.65 458.86Z" fill="#2175bd" fill-rule="nonzero" opacity="1" stroke="none"/>
<path d="M534.11 423.7C547.083 423.7 557.661 412.095 557.661 397.759C557.661 383.423 547.079 372.157 534.11 372.157C521.137 372.157 510.559 383.762 510.559 398.098C510.559 412.438 521.141 423.7 534.11 423.7" fill="#2175bd" fill-rule="nonzero" opacity="1" stroke="none"/>
<path d="M579.85 458.86L579.85 440.426C579.85 426.774 568.928 423.699 555.272 423.699C555.272 423.699 546.397 430.527 534.108 430.527C522.503 430.527 512.944 423.699 512.944 423.699C499.632 423.699 488.366 427.113 488.366 440.765L488.366 458.855C488.366 458.855 508.846 469.097 534.104 468.07C564.147 467.05 579.85 458.859 579.85 458.859L579.85 458.86Z" fill="#2175bd" fill-rule="nonzero" opacity="1" stroke="none"/>
<path d="M561.69 359.7C565.046 344.583 566.956 328.927 566.956 312.809C566.956 216.368 503.815 134.519 416.736 106.119C417.091 103.31 417.333 100.471 417.333 97.5682C417.333 60.1342 386.88 29.6772 349.442 29.6772C312.008 29.6772 281.555 60.1302 281.555 97.5682C281.555 100.471 281.797 103.314 282.153 106.119C195.075 134.521 131.933 216.369 131.933 312.809C131.933 330.063 134.089 346.797 137.921 362.895C134.605 364.407 131.359 366.126 128.269 368.188C113.179 378.239 102.906 393.571 99.3469 411.348C95.7844 429.133 99.3625 447.235 109.417 462.325C119.472 477.419 134.8 487.684 152.581 491.247C157.069 492.145 161.573 492.587 166.05 492.587C179.304 492.587 192.273 488.692 203.554 481.173C205.144 480.114 206.652 478.962 208.132 477.79C246.171 510.45 295.484 530.313 349.442 530.313C404.544 530.313 454.812 509.598 493.162 475.692C504.56 484.356 518.724 489.563 534.115 489.563C571.553 489.567 602.006 459.11 602.006 421.676C602.006 394.067 585.412 370.293 561.694 359.699L561.69 359.7ZM562.42 312.809C562.42 328.332 560.612 343.418 557.432 358C550.147 355.324 542.315 353.785 534.112 353.785C511.69 353.785 491.831 364.758 479.464 381.566L438.093 357.175C444.788 343.823 448.581 328.761 448.581 312.804C448.581 260.339 407.819 217.421 356.241 213.925L356.241 165.105C386.128 162.121 410.346 139.667 416.038 110.652C500.936 138.675 562.418 218.632 562.418 312.812L562.42 312.809ZM349.44 34.209C384.374 34.209 412.795 62.631 412.795 97.564C412.795 132.497 384.373 160.919 349.44 160.919C314.507 160.919 286.085 132.497 286.085 97.564C286.085 62.631 314.507 34.209 349.44 34.209ZM136.47 312.809C136.47 218.637 197.954 138.679 282.85 110.659C288.546 139.675 312.76 162.128 342.647 165.112L342.647 213.932C291.069 217.428 250.307 260.346 250.307 312.811C250.307 329.069 254.245 344.401 261.182 357.94L219.448 383.03C209.46 370.151 195.386 361.35 179.245 358.116C166.643 355.589 153.901 356.718 142.163 361.132C138.523 345.589 136.468 329.448 136.468 312.812L136.47 312.809ZM201.044 477.399C186.962 486.782 170.067 490.114 153.474 486.801C136.88 483.477 122.576 473.891 113.193 459.809C103.811 445.727 100.47 428.832 103.795 412.239C107.119 395.641 116.705 381.337 130.787 371.954C141.314 364.935 153.416 361.302 165.783 361.302C169.959 361.302 174.17 361.716 178.353 362.556C194.947 365.88 209.251 375.466 218.634 389.548C228.021 403.63 231.357 420.525 228.032 437.118C224.712 453.712 215.126 468.016 201.044 477.399L201.044 477.399ZM349.444 525.782C296.862 525.782 248.774 506.512 211.604 474.802C222.268 465.122 229.6 452.396 232.483 438.013C235.472 423.083 233.37 407.951 226.687 394.54L268.199 369.583C286.125 395.188 315.82 411.946 349.449 411.946C383.383 411.946 413.32 394.887 431.191 368.887L472.543 393.266C468.531 401.922 466.23 411.524 466.23 421.676C466.23 442.071 475.312 460.348 489.597 472.805C452.117 505.7 403.128 525.782 349.447 525.782L349.444 525.782ZM534.114 485.032C499.18 485.032 470.759 456.61 470.759 421.677C470.759 386.744 499.181 358.322 534.114 358.322C569.047 358.322 597.469 386.744 597.469 421.677C597.473 456.607 569.047 485.032 534.114 485.032Z" fill="#2175bd" fill-rule="nonzero" opacity="1" stroke="none"/>
</g>
</g>
</svg>
