<?xml version="1.0" encoding="UTF-8" standalone="no"?>
<!DOCTYPE svg PUBLIC "-//W3C//DTD SVG 1.1//EN" "http://www.w3.org/Graphics/SVG/1.1/DTD/svg11.dtd">
<!-- Created with Vectornator (http://vectornator.io/) -->
<svg height="100%" stroke-miterlimit="10" style="fill-rule:nonzero;clip-rule:evenodd;stroke-linecap:round;stroke-linejoin:round;" version="1.1" viewBox="0 0 700 700" width="100%" xml:space="preserve" xmlns="http://www.w3.org/2000/svg" xmlns:vectornator="http://vectornator.io" xmlns:xlink="http://www.w3.org/1999/xlink">
<defs/>
<g id="Untitled" vectornator:layerName="Untitled">
<g opacity="1">
<path d="M123.76 125.19C123.237 122.924 123.635 120.542 124.869 118.573C126.104 116.604 128.073 115.206 130.338 114.69L178.631 103.682C183.342 102.608 188.037 105.557 189.111 110.268C190.185 114.983 187.236 119.678 182.521 120.752L134.232 131.768C133.588 131.912 132.932 131.987 132.271 131.987C128.197 131.979 124.666 129.162 123.76 125.19L123.76 125.19ZM209.01 114.506C209.666 114.506 210.323 114.432 210.959 114.287L225.115 111.057L225.119 111.057C229.83 109.979 232.775 105.287 231.697 100.577C230.619 95.862 225.928 92.9166 221.217 93.9948L207.069 97.2331C202.745 98.237 199.858 102.323 200.354 106.733C200.85 111.143 204.569 114.487 209.011 114.506L209.01 114.506ZM269.85 327.256C267.741 327.272 265.702 328.014 264.073 329.358L210.085 376.522L210.085 336.006C210.085 333.685 209.163 331.459 207.522 329.818C205.882 328.178 203.655 327.256 201.335 327.256L135.886 327.256L135.886 167.286L385.876 110.325L385.876 219.875L403.376 224.773L403.376 99.303C403.356 96.6585 402.173 94.1624 400.137 92.4749C398.044 90.8147 395.305 90.2015 392.7 90.8147L125.13 151.803C121.192 152.732 118.407 156.24 118.392 160.287L118.392 336.007C118.392 338.327 119.313 340.554 120.954 342.195C122.595 343.835 124.821 344.757 127.142 344.757L192.591 344.757L192.591 395.859C192.618 399.265 194.591 402.359 197.669 403.82C198.825 404.332 200.075 404.597 201.341 404.609C203.466 404.586 205.513 403.812 207.118 402.422L273.095 344.758L318.072 344.758L318.072 327.258L269.85 327.256ZM435.9 430.736L376.88 430.736C372.048 430.736 368.13 434.654 368.13 439.486C368.13 444.322 372.048 448.236 376.88 448.236L435.9 448.236C440.732 448.236 444.65 444.322 444.65 439.486C444.65 434.654 440.732 430.736 435.9 430.736ZM350.002 430.736L342.67 430.736C337.838 430.736 333.92 434.654 333.92 439.486C333.92 444.322 337.838 448.236 342.67 448.236L350.002 448.236C354.834 448.236 358.752 444.322 358.752 439.486C358.752 434.654 354.834 430.736 350.002 430.736ZM575.312 273.506L403.372 224.768L403.372 335.998C403.372 338.318 402.45 340.545 400.809 342.186C399.169 343.826 396.942 344.748 394.622 344.748L318.06 344.748L318.06 404.51C318.06 406.83 318.982 409.057 320.623 410.698C322.263 412.338 324.49 413.26 326.81 413.26L446.33 413.26L503.119 466.987C504.748 468.542 506.904 469.417 509.158 469.436C510.26 469.401 511.353 469.194 512.392 468.823C515.545 467.561 517.689 464.6 517.908 461.21L521.232 413.261L572.857 413.261C575.178 413.261 577.404 412.339 579.045 410.698C580.685 409.058 581.607 406.831 581.607 404.511L581.607 281.901C581.646 277.998 579.064 274.557 575.306 273.502L575.312 273.506ZM321.472 205.256C319.288 206.916 318.023 209.514 318.058 212.256L318.058 327.246L385.87 327.246L385.87 219.866L329.171 203.764C326.511 203.057 323.675 203.604 321.472 205.252L321.472 205.256Z" fill="#2175bd" fill-rule="nonzero" opacity="1" stroke="none"/>
</g>
</g>
</svg>
