<?xml version="1.0" encoding="UTF-8" standalone="no"?>
<!DOCTYPE svg PUBLIC "-//W3C//DTD SVG 1.1//EN" "http://www.w3.org/Graphics/SVG/1.1/DTD/svg11.dtd">
<!-- Created with Vectornator (http://vectornator.io/) -->
<svg height="100%" stroke-miterlimit="10" style="fill-rule:nonzero;clip-rule:evenodd;stroke-linecap:round;stroke-linejoin:round;" version="1.1" viewBox="0 0 700 700" width="100%" xml:space="preserve" xmlns="http://www.w3.org/2000/svg" xmlns:vectornator="http://vectornator.io" xmlns:xlink="http://www.w3.org/1999/xlink">
<defs/>
<g id="Untitled" vectornator:layerName="Untitled">
<g opacity="1">
<path d="M280 280C280 298.566 287.375 316.371 300.504 329.496C313.629 342.625 331.434 350 350 350C368.566 350 386.371 342.625 399.496 329.496C412.625 316.371 420 298.566 420 280C420 261.434 412.625 243.629 399.496 230.504C386.371 217.375 368.566 210 350 210C331.434 210 313.629 217.375 300.504 230.504C287.375 243.629 280 261.434 280 280ZM402.5 280C402.5 293.926 396.969 307.277 387.125 317.125C377.277 326.969 363.926 332.5 350 332.5C336.074 332.5 322.723 326.969 312.875 317.125C303.031 307.277 297.5 293.926 297.5 280C297.5 266.074 303.031 252.723 312.875 242.875C322.723 233.031 336.074 227.5 350 227.5C363.926 227.5 377.277 233.031 387.125 242.875C396.969 252.723 402.5 266.074 402.5 280Z" fill="#2175bd" fill-rule="nonzero" opacity="1" stroke="none"/>
<path d="M201.25 367.5C217.496 367.5 233.074 361.047 244.559 349.559C256.047 338.075 262.5 322.497 262.5 306.25C262.5 290.003 256.047 274.426 244.559 262.941C233.075 251.453 217.497 245 201.25 245C185.003 245 169.426 251.453 157.941 262.941C146.453 274.425 140 290.003 140 306.25C140 322.497 146.453 338.074 157.941 349.559C169.425 361.047 185.003 367.5 201.25 367.5ZM201.25 262.5C212.852 262.5 223.98 267.109 232.188 275.312C240.391 283.519 245 294.648 245 306.25C245 317.852 240.391 328.98 232.188 337.188C223.981 345.391 212.852 350 201.25 350C189.648 350 178.52 345.391 170.312 337.188C162.109 328.981 157.5 317.852 157.5 306.25C157.5 294.648 162.109 283.52 170.312 275.312C178.519 267.109 189.648 262.5 201.25 262.5Z" fill="#2175bd" fill-rule="nonzero" opacity="1" stroke="none"/>
<path d="M538.12 367.5C536.616 367.504 535.139 367.895 533.831 368.637L498.745 388.5L463.745 368.637C462.413 367.883 460.901 367.488 459.37 367.5C455.764 367.523 452.167 367.816 448.608 368.375C433.67 356.52 415.174 350.047 396.108 350C394.323 350.004 392.584 350.555 391.12 351.574L349.995 379.926L309.046 351.574C307.581 350.555 305.842 350.004 304.057 350C284.991 350.047 266.495 356.519 251.557 368.375C247.94 367.809 244.284 367.516 240.619 367.5C239.115 367.504 237.639 367.895 236.33 368.637L201.244 388.5L166.244 368.637C164.912 367.883 163.4 367.488 161.869 367.5C142.15 367.523 123.248 375.367 109.303 389.309C95.3622 403.254 87.5182 422.157 87.4942 441.875L87.4942 498.75C87.4942 501.07 88.4161 503.297 90.0567 504.938C91.6973 506.578 93.9239 507.5 96.2442 507.5L218.744 507.5L218.744 533.75C218.744 536.07 219.666 538.297 221.307 539.938C222.947 541.578 225.174 542.5 227.494 542.5L472.494 542.5C474.814 542.5 477.041 541.578 478.682 539.938C480.322 538.297 481.244 536.07 481.244 533.75L481.244 507.5L603.744 507.5C606.064 507.5 608.291 506.578 609.932 504.938C611.572 503.297 612.494 501.07 612.494 498.75L612.494 441.875C612.494 422.148 604.658 403.23 590.709 389.285C576.764 375.336 557.846 367.5 538.119 367.5L538.12 367.5ZM105 490L105 441.875C105.031 427.176 110.738 413.055 120.926 402.461C131.114 391.863 145 385.609 159.688 385L196.961 406.176C199.668 407.738 203.004 407.738 205.711 406.176L230.91 391.914L230.914 391.914C223.027 405.141 218.883 420.262 218.926 435.664L218.926 490L105 490ZM463.75 525L236.25 525L236.25 435.312C236.258 417.781 243.051 400.929 255.199 388.289C267.351 375.648 283.918 368.199 301.437 367.5L345.187 397.688C348.187 399.77 352.164 399.77 355.164 397.688L398.914 367.5C416.371 368.289 432.852 375.777 444.926 388.406C457.004 401.039 463.746 417.836 463.75 435.312L463.75 525ZM595 490L481.25 490L481.25 435.312C481.293 419.914 477.148 404.789 469.262 391.562L494.461 405.824C497.168 407.387 500.504 407.387 503.211 405.824L540.313 385C554.993 385.629 568.868 391.891 579.051 402.484C589.235 413.074 594.946 427.183 595 441.875L595 490Z" fill="#2175bd" fill-rule="nonzero" opacity="1" stroke="none"/>
<path d="M498.75 367.5C514.996 367.5 530.574 361.047 542.059 349.559C553.547 338.075 560 322.497 560 306.25C560 290.003 553.547 274.426 542.059 262.941C530.575 251.453 514.997 245 498.75 245C482.503 245 466.926 251.453 455.441 262.941C443.953 274.425 437.5 290.003 437.5 306.25C437.5 322.497 443.953 338.074 455.441 349.559C466.925 361.047 482.503 367.5 498.75 367.5ZM498.75 262.5C510.352 262.5 521.48 267.109 529.688 275.312C537.891 283.519 542.5 294.648 542.5 306.25C542.5 317.852 537.891 328.98 529.688 337.188C521.481 345.391 510.352 350 498.75 350C487.148 350 476.02 345.391 467.812 337.188C459.609 328.981 455 317.852 455 306.25C455 294.648 459.609 283.52 467.812 275.312C476.019 267.109 487.148 262.5 498.75 262.5Z" fill="#2175bd" fill-rule="nonzero" opacity="1" stroke="none"/>
<path d="M446.25 186.11L474.164 87.497C481.012 87.0634 487.418 83.9618 492.008 78.8603C496.602 73.7626 499.012 67.0673 498.727 60.2083C498.442 53.3528 495.485 46.8803 490.485 42.1773C485.485 37.4781 478.844 34.9195 471.981 35.0562C465.117 35.1929 458.583 38.0093 453.774 42.9039C448.965 47.7984 446.266 54.3839 446.25 61.2479C446.281 63.619 446.637 65.9745 447.301 68.2479L389.028 109.021L369.688 61.2479C374.169 56.1698 376.512 49.5569 376.227 42.7869C375.946 36.0213 373.059 29.6269 368.169 24.9389C363.282 20.2514 356.773 17.6342 350.001 17.6342C343.228 17.6342 336.72 20.2514 331.833 24.9389C326.942 29.6264 324.055 36.0209 323.774 42.7869C323.489 49.5564 325.833 56.1699 330.313 61.2479L310.977 109.373L252.7 68.2479C254.837 60.9159 253.673 53.0139 249.513 46.6069C245.352 40.2007 238.607 35.9229 231.036 34.8959C223.469 33.8647 215.825 36.185 210.106 41.2436C204.383 46.3061 201.149 53.6106 201.25 61.2476C201.238 67.9312 203.773 74.3686 208.34 79.2436C212.91 84.1225 219.168 87.0756 225.836 87.4975L253.75 186.11C254.84 190.005 258.457 192.646 262.5 192.497L437.5 192.497C441.543 192.646 445.16 190.005 446.25 186.11L446.25 186.11ZM472.5 52.5C476.039 52.5 479.231 54.6328 480.582 57.9023C481.937 61.1718 481.191 64.9335 478.687 67.4375C476.184 69.9415 472.422 70.6875 469.152 69.332C465.883 67.9804 463.75 64.789 463.75 61.25C463.75 56.418 467.668 52.5 472.5 52.5ZM350 35C353.539 35 356.731 37.1328 358.082 40.4023C359.437 43.6718 358.691 47.4335 356.187 49.9375C353.684 52.4415 349.922 53.1875 346.652 51.832C343.383 50.4804 341.25 47.289 341.25 43.75C341.25 38.918 345.168 35 350 35ZM218.75 61.25C218.75 57.7109 220.883 54.5195 224.152 53.168C227.422 51.8125 231.183 52.5586 233.688 55.0625C236.192 57.5664 236.938 61.3281 235.582 64.5977C234.23 67.8672 231.039 70 227.5 70C222.668 70 218.75 66.082 218.75 61.25ZM269.062 175L242.812 82.602L310.101 129.676C311.539 130.68 313.246 131.227 314.999 131.25C315.839 131.375 316.695 131.375 317.539 131.25C320.093 130.473 322.156 128.574 323.136 126.086L345.624 70.0001C348.511 70.586 351.488 70.586 354.374 70.0001L376.862 126.176C377.843 128.66 379.905 130.563 382.46 131.336C383.308 131.434 384.163 131.403 384.999 131.25C386.784 131.246 388.522 130.696 389.987 129.676L457.276 82.6022L430.936 175L269.062 175Z" fill="#2175bd" fill-rule="nonzero" opacity="1" stroke="none"/>
</g>
</g>
</svg>
